<svg width="214" height="49" viewBox="0 0 214 49" fill="none" xmlns="http://www.w3.org/2000/svg">
<path d="M34.8559 0L28.9625 17.8105L23.1771 0H17.7537L11.7876 17.6668L6.07486 0H0L8.31646 25.1358H14.5736L20.323 8.11529L25.8887 25.1358H32.1802L40.4607 0H34.8559ZM42.9902 25.1358H48.8523V0H42.9917L42.9902 25.1358ZM71.4466 25.1358H78.2802L67.1816 11.2036L77.667 0H71.1588L59.95 11.7419V0H54.1286V25.1358H59.95V18.7798L63.3492 15.2604L71.4466 25.1358ZM80.1604 25.1358H86.0178V0H80.1604V25.1358ZM119.826 25.1358L119.755 0H114.943L105.617 15.6201L96.1442 0H91.2988V25.1358H96.7972V10.3779L104.21 22.4786H106.849L114.298 10.0509L114.334 25.1319L119.826 25.1358ZM130.927 20.4677V14.6507H142.678V10.1263H130.928V4.66816H144.234V0H125.107V25.1358H144.704V20.4677H130.927ZM148.644 25.1358H160.142C168.422 25.1358 174.099 20.1803 174.099 12.5683C174.099 4.95633 168.424 0 160.143 0H148.646L148.644 25.1358ZM154.502 20.3597V4.77612H159.853C164.879 4.77612 168.17 7.75644 168.17 12.5683C168.17 17.3801 164.879 20.3605 159.853 20.3605L154.502 20.3597ZM177.788 25.1358H183.645V0H177.788V25.1358ZM207.835 25.1358H213.982L202.665 0H196.877L185.599 25.1358H191.601L193.842 19.75H205.592L207.835 25.1358ZM195.723 15.3327L199.736 5.70898L203.749 15.3327H195.723Z" fill="black"/>
<path d="M10.1456 42.9304V39.7725H15.6759V38.0218H10.1456V35.0439H16.3795V33.2605H8.0185V44.7139H16.6085V42.9304H10.1456ZM37.6815 33.2605V41.0161L31.3658 33.2605H29.6151V44.7139H31.7258V36.9583L38.0415 44.7139H39.7922V33.2605H37.6815ZM55.82 44.7139H57.947V35.0603H61.743V33.2605H52.024V35.0603H55.82V44.7139ZM76.1017 42.9304V39.7725H81.632V38.0218H76.1017V35.0439H82.3356V33.2605H73.9746V44.7139H82.5647V42.9304H76.1017ZM105.356 44.7139L102.721 40.9506C104.276 40.3452 105.159 39.069 105.159 37.3346C105.159 34.7985 103.294 33.2605 100.283 33.2605H95.5712V44.7139H97.6982V41.376H100.283C100.431 41.376 100.578 41.376 100.725 41.3597L103.065 44.7139H105.356ZM103.016 37.3346C103.016 38.7745 102.051 39.6253 100.185 39.6253H97.6982V35.0603H100.185C102.051 35.0603 103.016 35.8947 103.016 37.3346ZM122.887 33.2605H118.174V44.7139H120.301V41.4087H122.887C125.897 41.4087 127.763 39.8544 127.763 37.3346C127.763 34.7985 125.897 33.2605 122.887 33.2605ZM122.788 39.6089H120.301V35.0603H122.788C124.654 35.0603 125.619 35.8947 125.619 37.3346C125.619 38.7745 124.654 39.6089 122.788 39.6089ZM150.306 44.7139L147.672 40.9506C149.227 40.3452 150.11 39.069 150.11 37.3346C150.11 34.7985 148.245 33.2605 145.234 33.2605H140.522V44.7139H142.649V41.376H145.234C145.381 41.376 145.529 41.376 145.676 41.3597L148.016 44.7139H150.306ZM147.967 37.3346C147.967 38.7745 147.001 39.6253 145.136 39.6253H142.649V35.0603H145.136C147.001 35.0603 147.967 35.8947 147.967 37.3346ZM163.125 44.7139H165.252V33.2605H163.125V44.7139ZM182.536 44.8775C185.677 44.8775 187.166 43.3067 187.166 41.4742C187.166 37.2692 180.376 38.8563 180.376 36.4183C180.376 35.5511 181.096 34.8639 182.863 34.8639C183.861 34.8639 184.99 35.1585 186.021 35.7639L186.692 34.1113C185.694 33.4568 184.254 33.0968 182.88 33.0968C179.738 33.0968 178.265 34.6676 178.265 36.5165C178.265 40.7706 185.072 39.1508 185.072 41.6214C185.072 42.4723 184.319 43.1104 182.536 43.1104C181.129 43.1104 179.673 42.5868 178.756 41.8505L178.02 43.5031C178.969 44.3212 180.753 44.8775 182.536 44.8775ZM202.038 42.9304V39.7725H207.568V38.0218H202.038V35.0439H208.272V33.2605H199.911V44.7139H208.501V42.9304H202.038Z" fill="black"/>
</svg>
